<mxfile host="app.diagrams.net" agent="Mozilla/5.0 (Windows NT 10.0; Win64; x64) AppleWebKit/537.36 (KHTML, like Gecko) Chrome/137.0.0.0 Safari/537.36" version="27.1.6">
  <diagram name="Page-1" id="uH3WKfSv36zcV2rReZKw">
    <mxGraphModel grid="1" page="1" gridSize="10" guides="1" tooltips="1" connect="1" arrows="1" fold="1" pageScale="1" pageWidth="850" pageHeight="1100" math="0" shadow="0">
      <root>
        <mxCell id="0" />
        <mxCell id="1" parent="0" />
        <mxCell id="7pTo85ww6blBeORmUE1j-1" value="" style="rounded=0;whiteSpace=wrap;html=1;fillColor=none;" vertex="1" parent="1">
          <mxGeometry x="40" y="90" width="130" height="330" as="geometry" />
        </mxCell>
        <mxCell id="7pTo85ww6blBeORmUE1j-2" value="&lt;b&gt;&lt;font style=&quot;font-size: 15px;&quot;&gt;Sources&lt;/font&gt;&lt;/b&gt;" style="rounded=0;whiteSpace=wrap;html=1;fillColor=default;strokeColor=none;" vertex="1" parent="1">
          <mxGeometry x="57.5" y="60" width="95" height="50" as="geometry" />
        </mxCell>
        <mxCell id="7pTo85ww6blBeORmUE1j-16" style="edgeStyle=orthogonalEdgeStyle;rounded=0;orthogonalLoop=1;jettySize=auto;html=1;" edge="1" parent="1" source="7pTo85ww6blBeORmUE1j-3" target="7pTo85ww6blBeORmUE1j-10">
          <mxGeometry relative="1" as="geometry">
            <Array as="points">
              <mxPoint x="187" y="170" />
              <mxPoint x="187" y="152" />
            </Array>
          </mxGeometry>
        </mxCell>
        <mxCell id="7pTo85ww6blBeORmUE1j-18" style="edgeStyle=orthogonalEdgeStyle;rounded=0;orthogonalLoop=1;jettySize=auto;html=1;" edge="1" parent="1" source="7pTo85ww6blBeORmUE1j-3" target="7pTo85ww6blBeORmUE1j-11">
          <mxGeometry relative="1" as="geometry" />
        </mxCell>
        <mxCell id="7pTo85ww6blBeORmUE1j-19" style="edgeStyle=orthogonalEdgeStyle;rounded=0;orthogonalLoop=1;jettySize=auto;html=1;entryX=0;entryY=0.5;entryDx=0;entryDy=0;" edge="1" parent="1" source="7pTo85ww6blBeORmUE1j-3" target="7pTo85ww6blBeORmUE1j-12">
          <mxGeometry relative="1" as="geometry" />
        </mxCell>
        <mxCell id="7pTo85ww6blBeORmUE1j-3" value="" style="image;aspect=fixed;html=1;points=[];align=center;fontSize=12;image=img/lib/azure2/general/Folder_Blank.svg;" vertex="1" parent="1">
          <mxGeometry x="71" y="140" width="69" height="56.00000000000001" as="geometry" />
        </mxCell>
        <mxCell id="7pTo85ww6blBeORmUE1j-20" style="edgeStyle=orthogonalEdgeStyle;rounded=0;orthogonalLoop=1;jettySize=auto;html=1;entryX=0;entryY=0.75;entryDx=0;entryDy=0;" edge="1" parent="1" source="7pTo85ww6blBeORmUE1j-4" target="7pTo85ww6blBeORmUE1j-13">
          <mxGeometry relative="1" as="geometry" />
        </mxCell>
        <mxCell id="7pTo85ww6blBeORmUE1j-21" style="edgeStyle=orthogonalEdgeStyle;rounded=0;orthogonalLoop=1;jettySize=auto;html=1;" edge="1" parent="1" source="7pTo85ww6blBeORmUE1j-4" target="7pTo85ww6blBeORmUE1j-14">
          <mxGeometry relative="1" as="geometry" />
        </mxCell>
        <mxCell id="7pTo85ww6blBeORmUE1j-22" style="edgeStyle=orthogonalEdgeStyle;rounded=0;orthogonalLoop=1;jettySize=auto;html=1;entryX=0;entryY=0.75;entryDx=0;entryDy=0;" edge="1" parent="1" source="7pTo85ww6blBeORmUE1j-4" target="7pTo85ww6blBeORmUE1j-15">
          <mxGeometry relative="1" as="geometry" />
        </mxCell>
        <mxCell id="7pTo85ww6blBeORmUE1j-4" value="" style="image;aspect=fixed;html=1;points=[];align=center;fontSize=12;image=img/lib/azure2/general/Folder_Blank.svg;" vertex="1" parent="1">
          <mxGeometry x="71" y="290" width="69" height="56.00000000000001" as="geometry" />
        </mxCell>
        <mxCell id="7pTo85ww6blBeORmUE1j-5" value="&lt;b&gt;CRM&lt;/b&gt;" style="text;html=1;align=center;verticalAlign=middle;whiteSpace=wrap;rounded=0;" vertex="1" parent="1">
          <mxGeometry x="75.5" y="196" width="60" height="30" as="geometry" />
        </mxCell>
        <mxCell id="7pTo85ww6blBeORmUE1j-6" value="&lt;b&gt;ERP&lt;/b&gt;" style="text;html=1;align=center;verticalAlign=middle;whiteSpace=wrap;rounded=0;" vertex="1" parent="1">
          <mxGeometry x="75.5" y="346" width="60" height="30" as="geometry" />
        </mxCell>
        <mxCell id="7pTo85ww6blBeORmUE1j-8" value="&lt;b&gt;Bronze Layer&lt;/b&gt;" style="rounded=1;whiteSpace=wrap;html=1;fillColor=#ffe6cc;strokeColor=#d79b00;" vertex="1" parent="1">
          <mxGeometry x="220" y="90" width="120" height="30" as="geometry" />
        </mxCell>
        <mxCell id="7pTo85ww6blBeORmUE1j-9" value="" style="rounded=1;whiteSpace=wrap;html=1;fillColor=none;strokeColor=#d79b00;" vertex="1" parent="1">
          <mxGeometry x="220" y="130" width="120" height="280" as="geometry" />
        </mxCell>
        <mxCell id="iJaLS1Z848FRpTzx7Fvz-9" style="edgeStyle=orthogonalEdgeStyle;rounded=0;orthogonalLoop=1;jettySize=auto;html=1;entryX=0;entryY=0.5;entryDx=0;entryDy=0;" edge="1" parent="1" source="7pTo85ww6blBeORmUE1j-10" target="iJaLS1Z848FRpTzx7Fvz-3">
          <mxGeometry relative="1" as="geometry" />
        </mxCell>
        <mxCell id="7pTo85ww6blBeORmUE1j-10" value="crm_cust_info" style="rounded=1;whiteSpace=wrap;html=1;fillColor=#ffe6cc;strokeColor=#d79b00;" vertex="1" parent="1">
          <mxGeometry x="235" y="140" width="90" height="24" as="geometry" />
        </mxCell>
        <mxCell id="iJaLS1Z848FRpTzx7Fvz-10" style="edgeStyle=orthogonalEdgeStyle;rounded=0;orthogonalLoop=1;jettySize=auto;html=1;entryX=0;entryY=0.5;entryDx=0;entryDy=0;" edge="1" parent="1" source="7pTo85ww6blBeORmUE1j-11" target="iJaLS1Z848FRpTzx7Fvz-4">
          <mxGeometry relative="1" as="geometry" />
        </mxCell>
        <mxCell id="7pTo85ww6blBeORmUE1j-11" value="crm_prd_info" style="rounded=1;whiteSpace=wrap;html=1;fillColor=#ffe6cc;strokeColor=#d79b00;" vertex="1" parent="1">
          <mxGeometry x="235" y="180" width="90" height="24" as="geometry" />
        </mxCell>
        <mxCell id="iJaLS1Z848FRpTzx7Fvz-11" style="edgeStyle=orthogonalEdgeStyle;rounded=0;orthogonalLoop=1;jettySize=auto;html=1;" edge="1" parent="1" source="7pTo85ww6blBeORmUE1j-12" target="iJaLS1Z848FRpTzx7Fvz-5">
          <mxGeometry relative="1" as="geometry" />
        </mxCell>
        <mxCell id="7pTo85ww6blBeORmUE1j-12" value="&lt;font style=&quot;font-size: 10px;&quot;&gt;crm_sales_details&lt;/font&gt;" style="rounded=1;whiteSpace=wrap;html=1;fillColor=#ffe6cc;strokeColor=#d79b00;" vertex="1" parent="1">
          <mxGeometry x="235" y="220" width="90" height="24" as="geometry" />
        </mxCell>
        <mxCell id="iJaLS1Z848FRpTzx7Fvz-12" style="edgeStyle=orthogonalEdgeStyle;rounded=0;orthogonalLoop=1;jettySize=auto;html=1;" edge="1" parent="1" source="7pTo85ww6blBeORmUE1j-13" target="iJaLS1Z848FRpTzx7Fvz-6">
          <mxGeometry relative="1" as="geometry" />
        </mxCell>
        <mxCell id="7pTo85ww6blBeORmUE1j-13" value="erp_cust_az12" style="rounded=1;whiteSpace=wrap;html=1;fillColor=#ffe6cc;strokeColor=#d79b00;" vertex="1" parent="1">
          <mxGeometry x="235" y="280" width="90" height="24" as="geometry" />
        </mxCell>
        <mxCell id="iJaLS1Z848FRpTzx7Fvz-13" style="edgeStyle=orthogonalEdgeStyle;rounded=0;orthogonalLoop=1;jettySize=auto;html=1;entryX=0;entryY=0.5;entryDx=0;entryDy=0;" edge="1" parent="1" source="7pTo85ww6blBeORmUE1j-14" target="iJaLS1Z848FRpTzx7Fvz-7">
          <mxGeometry relative="1" as="geometry" />
        </mxCell>
        <mxCell id="7pTo85ww6blBeORmUE1j-14" value="erp_loc_a101" style="rounded=1;whiteSpace=wrap;html=1;fillColor=#ffe6cc;strokeColor=#d79b00;" vertex="1" parent="1">
          <mxGeometry x="235" y="322" width="90" height="24" as="geometry" />
        </mxCell>
        <mxCell id="iJaLS1Z848FRpTzx7Fvz-14" style="edgeStyle=orthogonalEdgeStyle;rounded=0;orthogonalLoop=1;jettySize=auto;html=1;" edge="1" parent="1" source="7pTo85ww6blBeORmUE1j-15" target="iJaLS1Z848FRpTzx7Fvz-8">
          <mxGeometry relative="1" as="geometry" />
        </mxCell>
        <mxCell id="7pTo85ww6blBeORmUE1j-15" value="&lt;font style=&quot;font-size: 10px;&quot;&gt;erp_px_cat_g1v2a&lt;/font&gt;" style="rounded=1;whiteSpace=wrap;html=1;fillColor=#ffe6cc;strokeColor=#d79b00;" vertex="1" parent="1">
          <mxGeometry x="235" y="360" width="90" height="24" as="geometry" />
        </mxCell>
        <mxCell id="iJaLS1Z848FRpTzx7Fvz-1" value="&lt;b&gt;Bronze Layer&lt;/b&gt;" style="rounded=1;whiteSpace=wrap;html=1;fillColor=#f5f5f5;strokeColor=#666666;fontColor=#333333;" vertex="1" parent="1">
          <mxGeometry x="390" y="90" width="120" height="30" as="geometry" />
        </mxCell>
        <mxCell id="iJaLS1Z848FRpTzx7Fvz-2" value="" style="rounded=1;whiteSpace=wrap;html=1;fillColor=none;strokeColor=#666666;fontColor=#333333;" vertex="1" parent="1">
          <mxGeometry x="390" y="130" width="120" height="280" as="geometry" />
        </mxCell>
        <mxCell id="dEe3upgt2zmeYbRih3HD-10" style="edgeStyle=orthogonalEdgeStyle;rounded=0;orthogonalLoop=1;jettySize=auto;html=1;entryX=0;entryY=0.75;entryDx=0;entryDy=0;jumpStyle=gap;" edge="1" parent="1" source="iJaLS1Z848FRpTzx7Fvz-3" target="dEe3upgt2zmeYbRih3HD-3">
          <mxGeometry relative="1" as="geometry" />
        </mxCell>
        <mxCell id="iJaLS1Z848FRpTzx7Fvz-3" value="&lt;span style=&quot;font-size: 10px;&quot;&gt;crm_sales_details&lt;/span&gt;" style="rounded=1;whiteSpace=wrap;html=1;fillColor=#f5f5f5;strokeColor=#666666;fontColor=#333333;" vertex="1" parent="1">
          <mxGeometry x="405" y="140" width="90" height="24" as="geometry" />
        </mxCell>
        <mxCell id="dEe3upgt2zmeYbRih3HD-11" style="edgeStyle=orthogonalEdgeStyle;rounded=0;orthogonalLoop=1;jettySize=auto;html=1;entryX=0;entryY=0.5;entryDx=0;entryDy=0;jumpStyle=gap;" edge="1" parent="1" source="iJaLS1Z848FRpTzx7Fvz-4" target="dEe3upgt2zmeYbRih3HD-4">
          <mxGeometry relative="1" as="geometry" />
        </mxCell>
        <mxCell id="iJaLS1Z848FRpTzx7Fvz-4" value="crm_cust_info" style="rounded=1;whiteSpace=wrap;html=1;fillColor=#f5f5f5;strokeColor=#666666;fontColor=#333333;" vertex="1" parent="1">
          <mxGeometry x="405" y="180" width="90" height="24" as="geometry" />
        </mxCell>
        <mxCell id="dEe3upgt2zmeYbRih3HD-17" style="edgeStyle=orthogonalEdgeStyle;rounded=0;orthogonalLoop=1;jettySize=auto;html=1;entryX=0;entryY=0.75;entryDx=0;entryDy=0;jumpStyle=gap;" edge="1" parent="1" source="iJaLS1Z848FRpTzx7Fvz-5" target="dEe3upgt2zmeYbRih3HD-5">
          <mxGeometry relative="1" as="geometry" />
        </mxCell>
        <mxCell id="iJaLS1Z848FRpTzx7Fvz-5" value="&lt;font&gt;crm_prd_info&lt;/font&gt;" style="rounded=1;whiteSpace=wrap;html=1;fillColor=#f5f5f5;strokeColor=#666666;fontColor=#333333;" vertex="1" parent="1">
          <mxGeometry x="405" y="220" width="90" height="24" as="geometry" />
        </mxCell>
        <mxCell id="dEe3upgt2zmeYbRih3HD-18" style="edgeStyle=orthogonalEdgeStyle;rounded=0;orthogonalLoop=1;jettySize=auto;html=1;entryX=0;entryY=0.75;entryDx=0;entryDy=0;" edge="1" parent="1" source="iJaLS1Z848FRpTzx7Fvz-6" target="dEe3upgt2zmeYbRih3HD-4">
          <mxGeometry relative="1" as="geometry" />
        </mxCell>
        <mxCell id="iJaLS1Z848FRpTzx7Fvz-6" value="erp_cust_az12" style="rounded=1;whiteSpace=wrap;html=1;fillColor=#f5f5f5;strokeColor=#666666;fontColor=#333333;" vertex="1" parent="1">
          <mxGeometry x="405" y="280" width="90" height="24" as="geometry" />
        </mxCell>
        <mxCell id="dEe3upgt2zmeYbRih3HD-19" style="edgeStyle=orthogonalEdgeStyle;rounded=0;orthogonalLoop=1;jettySize=auto;html=1;entryX=0;entryY=0.75;entryDx=0;entryDy=0;" edge="1" parent="1" source="iJaLS1Z848FRpTzx7Fvz-7" target="dEe3upgt2zmeYbRih3HD-4">
          <mxGeometry relative="1" as="geometry" />
        </mxCell>
        <mxCell id="iJaLS1Z848FRpTzx7Fvz-7" value="erp_loc_a101" style="rounded=1;whiteSpace=wrap;html=1;fillColor=#f5f5f5;strokeColor=#666666;fontColor=#333333;" vertex="1" parent="1">
          <mxGeometry x="405" y="322" width="90" height="24" as="geometry" />
        </mxCell>
        <mxCell id="dEe3upgt2zmeYbRih3HD-16" style="edgeStyle=orthogonalEdgeStyle;rounded=0;orthogonalLoop=1;jettySize=auto;html=1;entryX=0;entryY=0.5;entryDx=0;entryDy=0;jumpStyle=gap;" edge="1" parent="1" source="iJaLS1Z848FRpTzx7Fvz-8" target="dEe3upgt2zmeYbRih3HD-5">
          <mxGeometry relative="1" as="geometry" />
        </mxCell>
        <mxCell id="iJaLS1Z848FRpTzx7Fvz-8" value="&lt;font style=&quot;font-size: 10px;&quot;&gt;erp_px_cat_g1v2a&lt;/font&gt;" style="rounded=1;whiteSpace=wrap;html=1;fillColor=#f5f5f5;strokeColor=#666666;fontColor=#333333;" vertex="1" parent="1">
          <mxGeometry x="405" y="360" width="90" height="24" as="geometry" />
        </mxCell>
        <mxCell id="dEe3upgt2zmeYbRih3HD-1" value="&lt;b&gt;Bronze Layer&lt;/b&gt;" style="rounded=1;whiteSpace=wrap;html=1;fillColor=#fff2cc;strokeColor=#d6b656;" vertex="1" parent="1">
          <mxGeometry x="580" y="90" width="120" height="30" as="geometry" />
        </mxCell>
        <mxCell id="dEe3upgt2zmeYbRih3HD-2" value="" style="rounded=1;whiteSpace=wrap;html=1;fillColor=none;strokeColor=#d6b656;" vertex="1" parent="1">
          <mxGeometry x="580" y="130" width="120" height="280" as="geometry" />
        </mxCell>
        <mxCell id="dEe3upgt2zmeYbRih3HD-3" value="fact_sales" style="rounded=1;whiteSpace=wrap;html=1;fillColor=#fff2cc;strokeColor=#d6b656;" vertex="1" parent="1">
          <mxGeometry x="595" y="156" width="90" height="24" as="geometry" />
        </mxCell>
        <mxCell id="dEe3upgt2zmeYbRih3HD-4" value="dim_customers" style="rounded=1;whiteSpace=wrap;html=1;fillColor=#fff2cc;strokeColor=#d6b656;" vertex="1" parent="1">
          <mxGeometry x="595" y="210" width="90" height="24" as="geometry" />
        </mxCell>
        <mxCell id="dEe3upgt2zmeYbRih3HD-5" value="&lt;font&gt;dim_products&lt;/font&gt;" style="rounded=1;whiteSpace=wrap;html=1;fillColor=#fff2cc;strokeColor=#d6b656;" vertex="1" parent="1">
          <mxGeometry x="595" y="283" width="90" height="24" as="geometry" />
        </mxCell>
      </root>
    </mxGraphModel>
  </diagram>
</mxfile>
